<svg data-v-423bf9ae="" xmlns="http://www.w3.org/2000/svg" viewBox="0 0 567 90" class="iconLeft"><!----><!----><!----><g data-v-423bf9ae="" id="1183917e-e3ea-46c6-acf3-0ed667c4e7e3" fill="white" transform="matrix(4.219780445098877,0,0,4.219780445098877,103.37361907958984,1.2857120037078857)"><path d="M2.57 4.55L2.57 13.64L1.57 13.64L1.57 3.63L4.04 3.63L4.04 3.63Q4.76 3.63 5.42 3.82L5.42 3.82L5.42 3.82Q6.08 4.02 6.57 4.40L6.57 4.40L6.57 4.40Q7.07 4.79 7.36 5.36L7.36 5.36L7.36 5.36Q7.66 5.93 7.66 6.70L7.66 6.70L7.66 6.70Q7.66 7.24 7.51 7.70L7.51 7.70L7.51 7.70Q7.36 8.16 7.11 8.53L7.11 8.53L7.11 8.53Q6.85 8.90 6.51 9.19L6.51 9.19L6.51 9.19Q6.17 9.47 5.78 9.67L5.78 9.67L5.78 9.67Q5.39 9.86 4.98 9.96L4.98 9.96L4.98 9.96Q4.56 10.06 4.16 10.06L4.16 10.06L4.16 10.06Q4.08 10.06 3.96 10.06L3.96 10.06L3.96 10.06Q3.85 10.06 3.71 10.04L3.71 10.04L3.77 9.13L3.77 9.13Q3.86 9.15 3.98 9.15L3.98 9.15L3.98 9.15Q4.09 9.15 4.19 9.15L4.19 9.15L4.19 9.15Q4.68 9.15 5.12 9.02L5.12 9.02L5.12 9.02Q5.56 8.88 5.89 8.60L5.89 8.60L5.89 8.60Q6.22 8.31 6.42 7.88L6.42 7.88L6.42 7.88Q6.61 7.44 6.61 6.84L6.61 6.84L6.61 6.84Q6.61 6.23 6.41 5.80L6.41 5.80L6.41 5.80Q6.21 5.37 5.84 5.09L5.84 5.09L5.84 5.09Q5.47 4.81 4.95 4.68L4.95 4.68L4.95 4.68Q4.42 4.55 3.79 4.55L3.79 4.55L2.57 4.55ZM9.56 13.64L9.56 6.40L10.34 6.40L10.49 8.50L10.49 8.50Q10.73 8.01 11.00 7.60L11.00 7.60L11.00 7.60Q11.27 7.19 11.57 6.89L11.57 6.89L11.57 6.89Q11.87 6.60 12.23 6.43L12.23 6.43L12.23 6.43Q12.58 6.26 13.00 6.26L13.00 6.26L13.00 6.26Q13.19 6.26 13.33 6.30L13.33 6.30L13.33 6.30Q13.48 6.34 13.66 6.43L13.66 6.43L13.56 7.32L13.56 7.32Q13.47 7.29 13.32 7.27L13.32 7.27L13.32 7.27Q13.17 7.26 13.04 7.26L13.04 7.26L13.04 7.26Q12.72 7.26 12.41 7.38L12.41 7.38L12.41 7.38Q12.10 7.49 11.79 7.76L11.79 7.76L11.79 7.76Q11.48 8.03 11.17 8.46L11.17 8.46L11.17 8.46Q10.86 8.89 10.54 9.53L10.54 9.53L10.54 13.64L9.56 13.64ZM17.80 13.78L17.80 13.78L17.80 13.78Q17.01 13.78 16.38 13.48L16.38 13.48L16.38 13.48Q15.76 13.19 15.32 12.69L15.32 12.69L15.32 12.69Q14.89 12.19 14.66 11.53L14.66 11.53L14.66 11.53Q14.42 10.88 14.42 10.16L14.42 10.16L14.42 10.16Q14.42 9.34 14.71 8.63L14.71 8.63L14.71 8.63Q15.00 7.92 15.50 7.40L15.50 7.40L15.50 7.40Q16.01 6.87 16.69 6.57L16.69 6.57L16.69 6.57Q17.38 6.26 18.17 6.26L18.17 6.26L18.17 6.26Q18.97 6.26 19.60 6.56L19.60 6.56L19.60 6.56Q20.22 6.86 20.65 7.37L20.65 7.37L20.65 7.37Q21.08 7.88 21.31 8.53L21.31 8.53L21.31 8.53Q21.53 9.19 21.53 9.91L21.53 9.91L21.53 9.91Q21.53 10.72 21.25 11.43L21.25 11.43L21.25 11.43Q20.96 12.13 20.46 12.66L20.46 12.66L20.46 12.66Q19.95 13.18 19.27 13.48L19.27 13.48L19.27 13.48Q18.59 13.78 17.80 13.78ZM17.99 12.89L17.99 12.89L17.99 12.89Q18.56 12.89 19.02 12.65L19.02 12.65L19.02 12.65Q19.49 12.42 19.82 12.03L19.82 12.03L19.82 12.03Q20.15 11.64 20.33 11.13L20.33 11.13L20.33 11.13Q20.51 10.62 20.51 10.07L20.51 10.07L20.51 10.07Q20.51 9.53 20.34 9.01L20.34 9.01L20.34 9.01Q20.17 8.48 19.84 8.07L19.84 8.07L19.84 8.07Q19.52 7.66 19.04 7.41L19.04 7.41L19.04 7.41Q18.57 7.16 17.97 7.16L17.97 7.16L17.97 7.16Q17.40 7.16 16.94 7.39L16.94 7.39L16.94 7.39Q16.48 7.62 16.15 8.00L16.15 8.00L16.15 8.00Q15.81 8.39 15.63 8.91L15.63 8.91L15.63 8.91Q15.45 9.42 15.45 9.98L15.45 9.98L15.45 9.98Q15.45 10.51 15.62 11.03L15.62 11.03L15.62 11.03Q15.79 11.55 16.12 11.97L16.12 11.97L16.12 11.97Q16.44 12.38 16.91 12.63L16.91 12.63L16.91 12.63Q17.38 12.89 17.99 12.89ZM23.37 3.97L23.37 3.97L23.37 3.97Q23.37 3.82 23.43 3.69L23.43 3.69L23.43 3.69Q23.48 3.56 23.58 3.47L23.58 3.47L23.58 3.47Q23.68 3.37 23.81 3.31L23.81 3.31L23.81 3.31Q23.94 3.25 24.08 3.25L24.08 3.25L24.08 3.25Q24.23 3.25 24.36 3.31L24.36 3.31L24.36 3.31Q24.49 3.37 24.59 3.47L24.59 3.47L24.59 3.47Q24.68 3.56 24.74 3.69L24.74 3.69L24.74 3.69Q24.80 3.82 24.80 3.97L24.80 3.97L24.80 3.97Q24.80 4.12 24.74 4.25L24.74 4.25L24.74 4.25Q24.68 4.38 24.59 4.48L24.59 4.48L24.59 4.48Q24.49 4.57 24.36 4.63L24.36 4.63L24.36 4.63Q24.23 4.68 24.08 4.68L24.08 4.68L24.08 4.68Q23.94 4.68 23.81 4.63L23.81 4.63L23.81 4.63Q23.68 4.57 23.58 4.48L23.58 4.48L23.58 4.48Q23.48 4.38 23.43 4.25L23.43 4.25L23.43 4.25Q23.37 4.12 23.37 3.97ZM23.60 13.17L23.60 6.40L24.58 6.40L24.58 13.08L24.58 13.08Q24.58 13.71 24.44 14.33L24.44 14.33L24.44 14.33Q24.29 14.95 24.00 15.52L24.00 15.52L24.00 15.52Q23.70 16.08 23.24 16.58L23.24 16.58L23.24 16.58Q22.77 17.08 22.13 17.47L22.13 17.47L21.77 16.99L21.77 16.99Q22.31 16.56 22.67 16.09L22.67 16.09L22.67 16.09Q23.02 15.62 23.23 15.13L23.23 15.13L23.23 15.13Q23.43 14.64 23.52 14.15L23.52 14.15L23.52 14.15Q23.60 13.65 23.60 13.17L23.60 13.17ZM32.55 12.43L32.55 13.10L32.55 13.10Q32.33 13.25 32.02 13.38L32.02 13.38L32.02 13.38Q31.72 13.50 31.38 13.59L31.38 13.59L31.38 13.59Q31.04 13.69 30.69 13.73L30.69 13.73L30.69 13.73Q30.34 13.78 30.04 13.78L30.04 13.78L30.04 13.78Q29.39 13.78 28.78 13.55L28.78 13.55L28.78 13.55Q28.16 13.32 27.69 12.87L27.69 12.87L27.69 12.87Q27.21 12.41 26.93 11.72L26.93 11.72L26.93 11.72Q26.64 11.04 26.64 10.12L26.64 10.12L26.64 10.12Q26.64 9.22 26.92 8.50L26.92 8.50L26.92 8.50Q27.20 7.79 27.67 7.29L27.67 7.29L27.67 7.29Q28.14 6.79 28.74 6.53L28.74 6.53L28.74 6.53Q29.34 6.26 29.98 6.26L29.98 6.26L29.98 6.26Q30.55 6.26 31.07 6.47L31.07 6.47L31.07 6.47Q31.58 6.69 31.97 7.08L31.97 7.08L31.97 7.08Q32.36 7.47 32.59 8.04L32.59 8.04L32.59 8.04Q32.82 8.60 32.82 9.30L32.82 9.30L32.82 9.30Q32.82 9.45 32.81 9.68L32.81 9.68L32.81 9.68Q32.79 9.92 32.76 10.16L32.76 10.16L27.67 10.16L27.67 10.16Q27.67 10.75 27.86 11.24L27.86 11.24L27.86 11.24Q28.06 11.73 28.43 12.09L28.43 12.09L28.43 12.09Q28.80 12.46 29.33 12.66L29.33 12.66L29.33 12.66Q29.87 12.86 30.54 12.86L30.54 12.86L30.54 12.86Q30.71 12.86 30.95 12.84L30.95 12.84L30.95 12.84Q31.19 12.82 31.47 12.78L31.47 12.78L31.47 12.78Q31.74 12.73 32.02 12.65L32.02 12.65L32.02 12.65Q32.31 12.56 32.55 12.43L32.55 12.43ZM27.67 9.38L31.86 9.38L31.86 9.38Q31.86 8.83 31.69 8.41L31.69 8.41L31.69 8.41Q31.52 8.00 31.24 7.72L31.24 7.72L31.24 7.72Q30.96 7.44 30.60 7.30L30.60 7.30L30.60 7.30Q30.24 7.16 29.85 7.16L29.85 7.16L29.85 7.16Q29.37 7.16 28.98 7.35L28.98 7.35L28.98 7.35Q28.58 7.54 28.29 7.85L28.29 7.85L28.29 7.85Q28.01 8.17 27.84 8.57L27.84 8.57L27.84 8.57Q27.68 8.97 27.67 9.38L27.67 9.38ZM39.97 12.43L39.97 13.10L39.97 13.10Q39.79 13.23 39.55 13.35L39.55 13.35L39.55 13.35Q39.32 13.47 39.04 13.57L39.04 13.57L39.04 13.57Q38.77 13.67 38.45 13.72L38.45 13.72L38.45 13.72Q38.14 13.78 37.79 13.78L37.79 13.78L37.79 13.78Q37.07 13.78 36.46 13.52L36.46 13.52L36.46 13.52Q35.85 13.25 35.41 12.79L35.41 12.79L35.41 12.79Q34.97 12.32 34.73 11.67L34.73 11.67L34.73 11.67Q34.48 11.02 34.48 10.25L34.48 10.25L34.48 10.25Q34.48 9.38 34.79 8.64L34.79 8.64L34.79 8.64Q35.10 7.91 35.62 7.38L35.62 7.38L35.62 7.38Q36.14 6.86 36.84 6.56L36.84 6.56L36.84 6.56Q37.53 6.26 38.30 6.26L38.30 6.26L38.30 6.26Q38.53 6.26 38.77 6.29L38.77 6.29L38.77 6.29Q39.01 6.31 39.23 6.36L39.23 6.36L39.23 6.36Q39.46 6.41 39.66 6.47L39.66 6.47L39.66 6.47Q39.85 6.54 39.98 6.62L39.98 6.62L39.75 7.53L39.59 7.60L39.59 7.60Q39.45 7.51 39.27 7.42L39.27 7.42L39.27 7.42Q39.09 7.34 38.89 7.28L38.89 7.28L38.89 7.28Q38.68 7.23 38.47 7.19L38.47 7.19L38.47 7.19Q38.26 7.16 38.06 7.16L38.06 7.16L38.06 7.16Q37.57 7.16 37.11 7.35L37.11 7.35L37.11 7.35Q36.65 7.55 36.30 7.92L36.30 7.92L36.30 7.92Q35.94 8.29 35.72 8.83L35.72 8.83L35.72 8.83Q35.51 9.37 35.51 10.07L35.51 10.07L35.51 10.07Q35.51 10.76 35.72 11.28L35.72 11.28L35.72 11.28Q35.94 11.81 36.30 12.15L36.30 12.15L36.30 12.15Q36.67 12.50 37.14 12.68L37.14 12.68L37.14 12.68Q37.62 12.86 38.14 12.86L38.14 12.86L38.14 12.86Q38.51 12.86 39.00 12.76L39.00 12.76L39.00 12.76Q39.49 12.67 39.97 12.43L39.97 12.43ZM42.86 11.90L42.86 7.27L41.38 7.27L41.47 6.74L41.47 6.74Q41.99 6.64 42.30 6.50L42.30 6.50L42.30 6.50Q42.60 6.36 42.78 6.13L42.78 6.13L42.78 6.13Q42.96 5.89 43.07 5.53L43.07 5.53L43.07 5.53Q43.18 5.16 43.32 4.60L43.32 4.60L43.89 4.60L43.89 6.40L46.56 6.40L46.31 7.27L43.84 7.27L43.84 11.55L43.84 11.55Q43.84 12.27 44.20 12.56L44.20 12.56L44.20 12.56Q44.56 12.86 45.19 12.86L45.19 12.86L45.19 12.86Q45.49 12.86 45.83 12.80L45.83 12.80L45.83 12.80Q46.18 12.74 46.47 12.63L46.47 12.63L46.47 13.29L46.47 13.29Q46.07 13.53 45.66 13.65L45.66 13.65L45.66 13.65Q45.26 13.78 44.84 13.78L44.84 13.78L44.84 13.78Q44.43 13.78 44.06 13.65L44.06 13.65L44.06 13.65Q43.70 13.52 43.44 13.28L43.44 13.28L43.44 13.28Q43.17 13.03 43.02 12.68L43.02 12.68L43.02 12.68Q42.86 12.33 42.86 11.90L42.86 11.90ZM52.78 13.64L51.89 13.64L52.64 3.63L54.22 3.63L57.00 10.90L57.38 12.02L57.52 12.02L57.88 10.90L60.63 3.63L62.23 3.63L62.97 13.64L61.99 13.64L61.40 5.63L61.33 4.32L61.21 4.32L60.82 5.56L57.84 13.44L56.96 13.44L53.95 5.58L53.55 4.32L53.43 4.32L53.38 5.62L52.78 13.64ZM69.56 12.56L69.56 12.56L69.56 12.56Q69.41 12.70 69.18 12.91L69.18 12.91L69.18 12.91Q68.95 13.12 68.64 13.31L68.64 13.31L68.64 13.31Q68.34 13.51 67.98 13.64L67.98 13.64L67.98 13.64Q67.62 13.78 67.22 13.78L67.22 13.78L67.22 13.78Q66.86 13.78 66.51 13.64L66.51 13.64L66.51 13.64Q66.15 13.51 65.87 13.25L65.87 13.25L65.87 13.25Q65.58 12.99 65.41 12.60L65.41 12.60L65.41 12.60Q65.24 12.22 65.24 11.72L65.24 11.72L65.24 11.72Q65.24 11.28 65.40 10.85L65.40 10.85L65.40 10.85Q65.57 10.42 65.98 10.08L65.98 10.08L65.98 10.08Q66.39 9.74 67.09 9.53L67.09 9.53L67.09 9.53Q67.79 9.32 68.85 9.32L68.85 9.32L69.59 9.32L69.59 8.59L69.59 8.59Q69.59 8.26 69.48 8.00L69.48 8.00L69.48 8.00Q69.36 7.74 69.16 7.55L69.16 7.55L69.16 7.55Q68.95 7.36 68.66 7.26L68.66 7.26L68.66 7.26Q68.37 7.16 68.02 7.16L68.02 7.16L68.02 7.16Q67.78 7.16 67.49 7.21L67.49 7.21L67.49 7.21Q67.21 7.26 66.93 7.35L66.93 7.35L66.93 7.35Q66.66 7.44 66.40 7.57L66.40 7.57L66.40 7.57Q66.15 7.70 65.97 7.85L65.97 7.85L65.84 7.78L65.63 6.98L65.63 6.98Q66.01 6.75 66.37 6.61L66.37 6.61L66.37 6.61Q66.73 6.47 67.06 6.40L67.06 6.40L67.06 6.40Q67.38 6.32 67.66 6.29L67.66 6.29L67.66 6.29Q67.94 6.26 68.18 6.26L68.18 6.26L68.18 6.26Q68.82 6.26 69.28 6.42L69.28 6.42L69.28 6.42Q69.73 6.58 70.02 6.86L70.02 6.86L70.02 6.86Q70.31 7.15 70.44 7.55L70.44 7.55L70.44 7.55Q70.57 7.96 70.57 8.45L70.57 8.45L70.57 12.10L70.57 12.10Q70.57 12.17 70.58 12.30L70.58 12.30L70.58 12.30Q70.59 12.43 70.65 12.55L70.65 12.55L70.65 12.55Q70.70 12.67 70.80 12.77L70.80 12.77L70.80 12.77Q70.90 12.86 71.07 12.86L71.07 12.86L71.07 12.86Q71.18 12.86 71.35 12.82L71.35 12.82L71.35 12.82Q71.53 12.78 71.70 12.70L71.70 12.70L71.70 13.33L71.70 13.33Q71.41 13.53 71.15 13.65L71.15 13.65L71.15 13.65Q70.89 13.78 70.60 13.78L70.60 13.78L70.60 13.78Q70.33 13.78 70.14 13.66L70.14 13.66L70.14 13.66Q69.95 13.54 69.83 13.36L69.83 13.36L69.83 13.36Q69.71 13.18 69.64 12.96L69.64 12.96L69.64 12.96Q69.58 12.75 69.56 12.56ZM69.59 11.69L69.59 10.10L68.98 10.10L68.98 10.10Q68.12 10.10 67.59 10.23L67.59 10.23L67.59 10.23Q67.05 10.35 66.76 10.55L66.76 10.55L66.76 10.55Q66.47 10.75 66.36 11.01L66.36 11.01L66.36 11.01Q66.26 11.27 66.26 11.54L66.26 11.54L66.26 11.54Q66.26 11.83 66.35 12.08L66.35 12.08L66.35 12.08Q66.43 12.32 66.60 12.49L66.60 12.49L66.60 12.49Q66.76 12.67 67.00 12.76L67.00 12.76L67.00 12.76Q67.23 12.86 67.53 12.86L67.53 12.86L67.53 12.86Q67.74 12.86 67.96 12.80L67.96 12.80L67.96 12.80Q68.19 12.74 68.44 12.61L68.44 12.61L68.44 12.61Q68.69 12.48 68.97 12.25L68.97 12.25L68.97 12.25Q69.26 12.02 69.59 11.69L69.59 11.69ZM73.36 13.64L73.36 6.40L74.14 6.40L74.28 7.68L74.28 7.68Q74.52 7.44 74.82 7.18L74.82 7.18L74.82 7.18Q75.12 6.93 75.47 6.73L75.47 6.73L75.47 6.73Q75.82 6.52 76.21 6.39L76.21 6.39L76.21 6.39Q76.61 6.26 77.04 6.26L77.04 6.26L77.04 6.26Q77.53 6.26 77.95 6.44L77.95 6.44L77.95 6.44Q78.36 6.62 78.66 6.95L78.66 6.95L78.66 6.95Q78.96 7.27 79.13 7.74L79.13 7.74L79.13 7.74Q79.30 8.21 79.30 8.79L79.30 8.79L79.30 13.64L78.32 13.64L78.32 8.93L78.32 8.93Q78.32 8.50 78.20 8.18L78.20 8.18L78.20 8.18Q78.09 7.85 77.88 7.63L77.88 7.63L77.88 7.63Q77.67 7.41 77.38 7.30L77.38 7.30L77.38 7.30Q77.08 7.18 76.73 7.18L76.73 7.18L76.73 7.18Q76.13 7.18 75.53 7.52L75.53 7.52L75.53 7.52Q74.94 7.86 74.33 8.46L74.33 8.46L74.33 13.64L73.36 13.64ZM85.78 12.56L85.78 12.56L85.78 12.56Q85.63 12.70 85.39 12.91L85.39 12.91L85.39 12.91Q85.16 13.12 84.86 13.31L84.86 13.31L84.86 13.31Q84.55 13.51 84.19 13.64L84.19 13.64L84.19 13.64Q83.84 13.78 83.44 13.78L83.44 13.78L83.44 13.78Q83.08 13.78 82.72 13.64L82.72 13.64L82.72 13.64Q82.37 13.51 82.08 13.25L82.08 13.25L82.08 13.25Q81.80 12.99 81.62 12.60L81.62 12.60L81.62 12.60Q81.45 12.22 81.45 11.72L81.45 11.72L81.45 11.72Q81.45 11.28 81.62 10.85L81.62 10.85L81.62 10.85Q81.79 10.42 82.20 10.08L82.20 10.08L82.20 10.08Q82.61 9.74 83.30 9.53L83.30 9.53L83.30 9.53Q84 9.32 85.07 9.32L85.07 9.32L85.80 9.32L85.80 8.59L85.80 8.59Q85.80 8.26 85.69 8.00L85.69 8.00L85.69 8.00Q85.58 7.74 85.37 7.55L85.37 7.55L85.37 7.55Q85.16 7.36 84.88 7.26L84.88 7.26L84.88 7.26Q84.59 7.16 84.24 7.16L84.24 7.16L84.24 7.16Q83.99 7.16 83.71 7.21L83.71 7.21L83.71 7.21Q83.43 7.26 83.15 7.35L83.15 7.35L83.15 7.35Q82.87 7.44 82.62 7.57L82.62 7.57L82.62 7.57Q82.37 7.70 82.18 7.85L82.18 7.85L82.06 7.78L81.84 6.98L81.84 6.98Q82.23 6.75 82.59 6.61L82.59 6.61L82.59 6.61Q82.95 6.47 83.27 6.40L83.27 6.40L83.27 6.40Q83.60 6.32 83.88 6.29L83.88 6.29L83.88 6.29Q84.16 6.26 84.40 6.26L84.40 6.26L84.40 6.26Q85.04 6.26 85.49 6.42L85.49 6.42L85.49 6.42Q85.95 6.58 86.24 6.86L86.24 6.86L86.24 6.86Q86.52 7.15 86.65 7.55L86.65 7.55L86.65 7.55Q86.78 7.96 86.78 8.45L86.78 8.45L86.78 12.10L86.78 12.10Q86.78 12.17 86.80 12.30L86.80 12.30L86.80 12.30Q86.81 12.43 86.86 12.55L86.86 12.55L86.86 12.55Q86.91 12.67 87.01 12.77L87.01 12.77L87.01 12.77Q87.11 12.86 87.28 12.86L87.28 12.86L87.28 12.86Q87.39 12.86 87.57 12.82L87.57 12.82L87.57 12.82Q87.75 12.78 87.92 12.70L87.92 12.70L87.92 13.33L87.92 13.33Q87.62 13.53 87.36 13.65L87.36 13.65L87.36 13.65Q87.10 13.78 86.82 13.78L86.82 13.78L86.82 13.78Q86.54 13.78 86.35 13.66L86.35 13.66L86.35 13.66Q86.17 13.54 86.04 13.36L86.04 13.36L86.04 13.36Q85.92 13.18 85.86 12.96L85.86 12.96L85.86 12.96Q85.80 12.75 85.78 12.56ZM85.80 11.69L85.80 10.10L85.20 10.10L85.20 10.10Q84.33 10.10 83.80 10.23L83.80 10.23L83.80 10.23Q83.27 10.35 82.97 10.55L82.97 10.55L82.97 10.55Q82.68 10.75 82.58 11.01L82.58 11.01L82.58 11.01Q82.48 11.27 82.48 11.54L82.48 11.54L82.48 11.54Q82.48 11.83 82.56 12.08L82.56 12.08L82.56 12.08Q82.65 12.32 82.81 12.49L82.81 12.49L82.81 12.49Q82.97 12.67 83.21 12.76L83.21 12.76L83.21 12.76Q83.45 12.86 83.75 12.86L83.75 12.86L83.75 12.86Q83.95 12.86 84.18 12.80L84.18 12.80L84.18 12.80Q84.40 12.74 84.65 12.61L84.65 12.61L84.65 12.61Q84.90 12.48 85.19 12.25L85.19 12.25L85.19 12.25Q85.48 12.02 85.80 11.69L85.80 11.69ZM93.16 13.94L91.42 13.94L91.42 13.94Q91.21 14.03 90.98 14.17L90.98 14.17L90.98 14.17Q90.74 14.32 90.54 14.51L90.54 14.51L90.54 14.51Q90.34 14.70 90.21 14.92L90.21 14.92L90.21 14.92Q90.08 15.14 90.08 15.37L90.08 15.37L90.08 15.37Q90.08 15.61 90.23 15.83L90.23 15.83L90.23 15.83Q90.38 16.04 90.65 16.20L90.65 16.20L90.65 16.20Q90.93 16.37 91.33 16.46L91.33 16.46L91.33 16.46Q91.73 16.55 92.24 16.55L92.24 16.55L92.24 16.55Q92.80 16.55 93.28 16.43L93.28 16.43L93.28 16.43Q93.75 16.31 94.08 16.10L94.08 16.10L94.08 16.10Q94.42 15.89 94.60 15.61L94.60 15.61L94.60 15.61Q94.79 15.33 94.79 15.01L94.79 15.01L94.79 15.01Q94.79 14.74 94.65 14.53L94.65 14.53L94.65 14.53Q94.52 14.33 94.30 14.20L94.30 14.20L94.30 14.20Q94.08 14.07 93.78 14.00L93.78 14.00L93.78 14.00Q93.49 13.94 93.16 13.94L93.16 13.94ZM90.51 13.78L90.51 13.78L90.51 13.78Q90.32 13.73 90.15 13.62L90.15 13.62L90.15 13.62Q89.98 13.52 89.85 13.38L89.85 13.38L89.85 13.38Q89.73 13.24 89.65 13.07L89.65 13.07L89.65 13.07Q89.58 12.91 89.58 12.72L89.58 12.72L89.58 12.72Q89.58 12.50 89.68 12.30L89.68 12.30L89.68 12.30Q89.79 12.10 89.96 11.92L89.96 11.92L89.96 11.92Q90.14 11.73 90.36 11.57L90.36 11.57L90.36 11.57Q90.58 11.40 90.81 11.26L90.81 11.26L90.81 11.26Q90.17 10.91 89.78 10.33L89.78 10.33L89.78 10.33Q89.39 9.74 89.39 9.00L89.39 9.00L89.39 9.00Q89.39 8.35 89.68 7.84L89.68 7.84L89.68 7.84Q89.97 7.33 90.41 6.98L90.41 6.98L90.41 6.98Q90.86 6.63 91.39 6.45L91.39 6.45L91.39 6.45Q91.92 6.26 92.41 6.26L92.41 6.26L92.41 6.26Q92.61 6.26 92.83 6.29L92.83 6.29L92.83 6.29Q93.04 6.32 93.24 6.38L93.24 6.38L93.24 6.38Q93.43 6.43 93.61 6.51L93.61 6.51L93.61 6.51Q93.78 6.58 93.91 6.67L93.91 6.67L93.91 6.67Q94.03 6.60 94.20 6.55L94.20 6.55L94.20 6.55Q94.38 6.50 94.56 6.47L94.56 6.47L94.56 6.47Q94.74 6.43 94.91 6.42L94.91 6.42L94.91 6.42Q95.09 6.40 95.20 6.40L95.20 6.40L96.52 6.40L96.26 7.29L94.49 7.29L94.49 7.29Q94.62 7.40 94.73 7.57L94.73 7.57L94.73 7.57Q94.85 7.75 94.94 7.96L94.94 7.96L94.94 7.96Q95.03 8.18 95.09 8.42L95.09 8.42L95.09 8.42Q95.14 8.66 95.14 8.91L95.14 8.91L95.14 8.91Q95.14 9.48 94.88 9.97L94.88 9.97L94.88 9.97Q94.61 10.46 94.19 10.82L94.19 10.82L94.19 10.82Q93.76 11.18 93.24 11.39L93.24 11.39L93.24 11.39Q92.71 11.60 92.18 11.60L92.18 11.60L92.18 11.60Q92.03 11.60 91.85 11.58L91.85 11.58L91.85 11.58Q91.68 11.57 91.48 11.54L91.48 11.54L91.48 11.54Q91.33 11.62 91.18 11.72L91.18 11.72L91.18 11.72Q91.03 11.82 90.90 11.93L90.90 11.93L90.90 11.93Q90.77 12.04 90.69 12.16L90.69 12.16L90.69 12.16Q90.61 12.29 90.61 12.43L90.61 12.43L90.61 12.43Q90.61 12.54 90.67 12.65L90.67 12.65L90.67 12.65Q90.72 12.76 90.82 12.84L90.82 12.84L90.82 12.84Q90.92 12.93 91.06 12.99L91.06 12.99L91.06 12.99Q91.21 13.04 91.40 13.04L91.40 13.04L93.43 13.04L93.43 13.04Q93.95 13.04 94.38 13.18L94.38 13.18L94.38 13.18Q94.81 13.32 95.12 13.56L95.12 13.56L95.12 13.56Q95.42 13.80 95.59 14.13L95.59 14.13L95.59 14.13Q95.76 14.46 95.76 14.83L95.76 14.83L95.76 14.83Q95.76 15.29 95.49 15.76L95.49 15.76L95.49 15.76Q95.22 16.23 94.74 16.60L94.74 16.60L94.74 16.60Q94.25 16.98 93.56 17.21L93.56 17.21L93.56 17.21Q92.87 17.45 92.01 17.45L92.01 17.45L92.01 17.45Q91.38 17.45 90.84 17.31L90.84 17.31L90.84 17.31Q90.30 17.17 89.90 16.93L89.90 16.93L89.90 16.93Q89.51 16.69 89.29 16.36L89.29 16.36L89.29 16.36Q89.07 16.03 89.07 15.64L89.07 15.64L89.07 15.64Q89.07 15.31 89.22 15.02L89.22 15.02L89.22 15.02Q89.37 14.73 89.60 14.50L89.60 14.50L89.60 14.50Q89.82 14.26 90.07 14.08L90.07 14.08L90.07 14.08Q90.32 13.90 90.51 13.78ZM90.36 8.89L90.36 8.89L90.36 8.89Q90.36 9.28 90.51 9.61L90.51 9.61L90.51 9.61Q90.67 9.95 90.92 10.21L90.92 10.21L90.92 10.21Q91.18 10.46 91.53 10.61L91.53 10.61L91.53 10.61Q91.88 10.75 92.27 10.75L92.27 10.75L92.27 10.75Q92.64 10.75 92.99 10.62L92.99 10.62L92.99 10.62Q93.33 10.49 93.59 10.25L93.59 10.25L93.59 10.25Q93.86 10.01 94.01 9.68L94.01 9.68L94.01 9.68Q94.17 9.35 94.17 8.95L94.17 8.95L94.17 8.95Q94.17 8.56 94.02 8.22L94.02 8.22L94.02 8.22Q93.87 7.89 93.61 7.64L93.61 7.64L93.61 7.64Q93.36 7.40 93.01 7.25L93.01 7.25L93.01 7.25Q92.66 7.11 92.26 7.11L92.26 7.11L92.26 7.11Q91.89 7.11 91.55 7.24L91.55 7.24L91.55 7.24Q91.21 7.36 90.94 7.59L90.94 7.59L90.94 7.59Q90.68 7.83 90.52 8.16L90.52 8.16L90.52 8.16Q90.36 8.48 90.36 8.89ZM103.21 12.43L103.21 13.10L103.21 13.10Q102.98 13.25 102.68 13.38L102.68 13.38L102.68 13.38Q102.38 13.50 102.04 13.59L102.04 13.59L102.04 13.59Q101.70 13.69 101.35 13.73L101.35 13.73L101.35 13.73Q101.00 13.78 100.69 13.78L100.69 13.78L100.69 13.78Q100.04 13.78 99.43 13.55L99.43 13.55L99.43 13.55Q98.82 13.32 98.35 12.87L98.35 12.87L98.35 12.87Q97.87 12.41 97.58 11.72L97.58 11.72L97.58 11.72Q97.30 11.04 97.30 10.12L97.30 10.12L97.30 10.12Q97.30 9.22 97.58 8.50L97.58 8.50L97.58 8.50Q97.86 7.79 98.32 7.29L98.32 7.29L98.32 7.29Q98.79 6.79 99.39 6.53L99.39 6.53L99.39 6.53Q100.00 6.26 100.63 6.26L100.63 6.26L100.63 6.26Q101.21 6.26 101.72 6.47L101.72 6.47L101.72 6.47Q102.24 6.69 102.63 7.08L102.63 7.08L102.63 7.08Q103.02 7.47 103.25 8.04L103.25 8.04L103.25 8.04Q103.48 8.60 103.48 9.30L103.48 9.30L103.48 9.30Q103.48 9.45 103.46 9.68L103.46 9.68L103.46 9.68Q103.45 9.92 103.41 10.16L103.41 10.16L98.32 10.16L98.32 10.16Q98.32 10.75 98.52 11.24L98.52 11.24L98.52 11.24Q98.72 11.73 99.09 12.09L99.09 12.09L99.09 12.09Q99.46 12.46 99.99 12.66L99.99 12.66L99.99 12.66Q100.52 12.86 101.19 12.86L101.19 12.86L101.19 12.86Q101.36 12.86 101.61 12.84L101.61 12.84L101.61 12.84Q101.85 12.82 102.12 12.78L102.12 12.78L102.12 12.78Q102.40 12.73 102.68 12.65L102.68 12.65L102.68 12.65Q102.96 12.56 103.21 12.43L103.21 12.43ZM98.32 9.38L102.52 9.38L102.52 9.38Q102.52 8.83 102.35 8.41L102.35 8.41L102.35 8.41Q102.18 8.00 101.90 7.72L101.90 7.72L101.90 7.72Q101.62 7.44 101.25 7.30L101.25 7.30L101.25 7.30Q100.89 7.16 100.50 7.16L100.50 7.16L100.50 7.16Q100.03 7.16 99.63 7.35L99.63 7.35L99.63 7.35Q99.24 7.54 98.95 7.85L98.95 7.85L98.95 7.85Q98.66 8.17 98.50 8.57L98.50 8.57L98.50 8.57Q98.33 8.97 98.32 9.38L98.32 9.38ZM105.59 13.64L105.59 6.40L106.37 6.40L106.51 8.50L106.51 8.50Q106.76 8.01 107.02 7.60L107.02 7.60L107.02 7.60Q107.29 7.19 107.59 6.89L107.59 6.89L107.59 6.89Q107.90 6.60 108.25 6.43L108.25 6.43L108.25 6.43Q108.60 6.26 109.03 6.26L109.03 6.26L109.03 6.26Q109.21 6.26 109.36 6.30L109.36 6.30L109.36 6.30Q109.50 6.34 109.68 6.43L109.68 6.43L109.58 7.32L109.58 7.32Q109.49 7.29 109.34 7.27L109.34 7.27L109.34 7.27Q109.19 7.26 109.07 7.26L109.07 7.26L109.07 7.26Q108.75 7.26 108.44 7.38L108.44 7.38L108.44 7.38Q108.12 7.49 107.81 7.76L107.81 7.76L107.81 7.76Q107.50 8.03 107.19 8.46L107.19 8.46L107.19 8.46Q106.88 8.89 106.57 9.53L106.57 9.53L106.57 13.64L105.59 13.64Z"></path></g><!----><g data-v-423bf9ae="" id="fc279555-4c2e-4ab1-907a-222af8727f95" transform="matrix(2.8125,0,0,2.8125,0,0)" stroke="none" fill="white"><path d="M4.029 14.362L14.362 4.028l.707.707L4.736 15.07zM17.135 27.47L27.47 17.135l.707.707-10.333 10.333zM4.029 17.841l.707-.707 10.333 10.334-.707.707zM17.135 4.735l.708-.707L28.176 14.36l-.707.707z"></path><g><path d="M16 1.414l1.683 1.683L16 4.779l-1.683-1.683L16 1.414M16 0l-3.097 3.097L16 6.194l3.097-3.097L16 0zM16 27.221l1.683 1.683L16 30.586l-1.683-1.683L16 27.221m0-1.415l-3.097 3.097L16 32l3.097-3.097L16 25.806zM3.097 14.317L4.779 16l-1.683 1.683L1.414 16l1.683-1.683m0-1.414L0 16l3.097 3.097L6.194 16l-3.097-3.097zM28.903 14.317L30.586 16l-1.683 1.683L27.221 16l1.682-1.683m0-1.414L25.806 16l3.097 3.097L32 16l-3.097-3.097z"></path></g></g><!----></svg>